<svg xmlns="http://www.w3.org/2000/svg" cursor="default" viewBox="0 0 1052 1052"><path fill-rule="evenodd" fill="#fff" d="M0 526v526h1053V0H0v526m783-48c-37 3-69 17-92 40-24 24-36 53-36 91 0 41 12 73 39 98 20 20 43 34 93 56 55 23 70 33 78 49 6 12 6 27 0 39s-21 24-39 28c-12 2-38 2-50-1-26-6-47-21-65-48l-6-8-79 45c-1 1 0 3 4 10 9 15 16 24 29 37a212 212 0 0 0 147 55c27-1 45-4 69-11a134 134 0 0 0 90-94c2-11 2-13 2-33l-1-31c-5-26-17-48-35-67-21-21-48-37-103-61-42-18-55-25-64-35-9-9-13-21-12-34 1-10 4-18 11-25 9-10 20-14 37-14 12 0 20 1 30 6 8 4 21 17 27 27l7 8 75-49c0-2-16-25-25-34-26-27-56-41-99-44h-32M473 659l-2 184c-5 21-16 32-34 36-8 2-26 1-33-1-17-5-29-16-42-39l-6-9-40 24-40 24 4 9c19 35 48 60 85 72 41 14 94 12 131-4 39-17 63-49 73-98l2-191V483h-98v176"/></svg>